<svg width="400" height="394" viewBox="0 0 " fill="none" xmlns="http://www.w3.org/2000/svg">
<rect width="400" height="179" transform="matrix(1 0 0 -1 0 394)" fill="#0029FF"/>
<path d="M19.4027 259V241.545H21.5163V249.318H30.8232V241.545H32.9368V259H30.8232V251.193H21.5163V259H19.4027ZM37.1683 259V241.545H39.282V249.318H48.5888V241.545H50.7024V259H48.5888V251.193H39.282V259H37.1683ZM61.6839 259V241.545H67.7862C69.0021 241.545 70.005 241.756 70.7947 242.176C71.5845 242.591 72.1726 243.151 72.5589 243.855C72.9453 244.554 73.1385 245.33 73.1385 246.182C73.1385 246.932 73.005 247.551 72.7379 248.04C72.4766 248.528 72.13 248.915 71.6982 249.199C71.272 249.483 70.8089 249.693 70.3089 249.83V250C70.843 250.034 71.38 250.222 71.9197 250.562C72.4595 250.903 72.9112 251.392 73.2749 252.028C73.6385 252.665 73.8203 253.443 73.8203 254.364C73.8203 255.239 73.6214 256.026 73.2237 256.724C72.826 257.423 72.1982 257.977 71.3402 258.386C70.4822 258.795 69.3658 259 67.9908 259H61.6839ZM63.7976 257.125H67.9908C69.3714 257.125 70.3516 256.858 70.9311 256.324C71.5163 255.784 71.8089 255.131 71.8089 254.364C71.8089 253.773 71.6584 253.227 71.3572 252.727C71.0561 252.222 70.6271 251.818 70.0703 251.517C69.5135 251.21 68.8544 251.057 68.093 251.057H63.7976V257.125ZM63.7976 249.216H67.718C68.3544 249.216 68.9283 249.091 69.4396 248.841C69.9567 248.591 70.3658 248.239 70.6669 247.784C70.9737 247.33 71.1271 246.795 71.1271 246.182C71.1271 245.415 70.8601 244.764 70.326 244.23C69.7919 243.69 68.9453 243.42 67.7862 243.42H63.7976V249.216ZM91.3388 247H89.2251C89.1001 246.392 88.8814 245.858 88.5689 245.398C88.2621 244.938 87.8871 244.551 87.4439 244.239C87.0064 243.92 86.5206 243.682 85.9865 243.523C85.4524 243.364 84.8956 243.284 84.3161 243.284C83.2592 243.284 82.3018 243.551 81.4439 244.085C80.5916 244.619 79.9126 245.406 79.407 246.446C78.907 247.486 78.657 248.761 78.657 250.273C78.657 251.784 78.907 253.06 79.407 254.099C79.9126 255.139 80.5916 255.926 81.4439 256.46C82.3018 256.994 83.2592 257.261 84.3161 257.261C84.8956 257.261 85.4524 257.182 85.9865 257.023C86.5206 256.864 87.0064 256.628 87.4439 256.315C87.8871 255.997 88.2621 255.608 88.5689 255.148C88.8814 254.682 89.1001 254.148 89.2251 253.545H91.3388C91.1797 254.437 90.8899 255.236 90.4695 255.94C90.049 256.645 89.5263 257.244 88.9013 257.739C88.2763 258.227 87.5746 258.599 86.7962 258.855C86.0234 259.111 85.1967 259.239 84.3161 259.239C82.8274 259.239 81.5036 258.875 80.3445 258.148C79.1854 257.42 78.2734 256.386 77.6087 255.045C76.9439 253.705 76.6115 252.114 76.6115 250.273C76.6115 248.432 76.9439 246.841 77.6087 245.5C78.2734 244.159 79.1854 243.125 80.3445 242.398C81.5036 241.67 82.8274 241.307 84.3161 241.307C85.1967 241.307 86.0234 241.435 86.7962 241.69C87.5746 241.946 88.2763 242.321 88.9013 242.815C89.5263 243.304 90.049 243.901 90.4695 244.605C90.8899 245.304 91.1797 246.102 91.3388 247ZM108.595 241.545V259H106.55L97.0384 245.295H96.8679V259H94.7543V241.545H96.7997L106.345 255.284H106.516V241.545H108.595Z" fill="white"/>
<path d="M227.284 260L222.511 242.545H224.659L228.307 256.761H228.477L232.193 242.545H234.58L238.295 256.761H238.466L242.114 242.545H244.261L239.489 260H237.307L233.455 246.091H233.318L229.466 260H227.284ZM250.065 260L245.293 242.545H247.44L251.088 256.761H251.259L254.974 242.545H257.361L261.077 256.761H261.247L264.895 242.545H267.043L262.27 260H260.088L256.236 246.091H256.099L252.247 260H250.065ZM272.847 260L268.074 242.545H270.222L273.869 256.761H274.04L277.756 242.545H280.142L283.858 256.761H284.028L287.676 242.545H289.824L285.051 260H282.869L279.017 246.091H278.881L275.028 260H272.847ZM291.33 260.136C290.91 260.136 290.549 259.986 290.248 259.685C289.947 259.384 289.796 259.023 289.796 258.602C289.796 258.182 289.947 257.821 290.248 257.52C290.549 257.219 290.91 257.068 291.33 257.068C291.751 257.068 292.112 257.219 292.413 257.52C292.714 257.821 292.864 258.182 292.864 258.602C292.864 258.881 292.793 259.136 292.651 259.369C292.515 259.602 292.33 259.79 292.097 259.932C291.87 260.068 291.614 260.136 291.33 260.136ZM224.114 289V271.545H234.58V273.42H226.227V279.318H233.795V281.193H226.227V289H224.114ZM238.2 289V271.545H240.313V287.125H248.427V289H238.2ZM251.7 289V271.545H262.234V273.42H253.813V279.318H261.688V281.193H253.813V287.125H262.37V289H251.7ZM267.066 271.545L271.566 278.807H271.702L276.202 271.545H278.691L273.202 280.273L278.691 289H276.202L271.702 281.875H271.566L267.066 289H264.577L270.202 280.273L264.577 271.545H267.066ZM283.555 271.545V289H281.442V271.545H283.555ZM287.793 289V271.545H293.896C295.112 271.545 296.114 271.756 296.904 272.176C297.694 272.591 298.282 273.151 298.668 273.855C299.055 274.554 299.248 275.33 299.248 276.182C299.248 276.932 299.114 277.551 298.847 278.04C298.586 278.528 298.239 278.915 297.808 279.199C297.381 279.483 296.918 279.693 296.418 279.83V280C296.952 280.034 297.489 280.222 298.029 280.562C298.569 280.903 299.021 281.392 299.384 282.028C299.748 282.665 299.93 283.443 299.93 284.364C299.93 285.239 299.731 286.026 299.333 286.724C298.935 287.423 298.308 287.977 297.45 288.386C296.592 288.795 295.475 289 294.1 289H287.793ZM289.907 287.125H294.1C295.481 287.125 296.461 286.858 297.04 286.324C297.626 285.784 297.918 285.131 297.918 284.364C297.918 283.773 297.768 283.227 297.467 282.727C297.165 282.222 296.737 281.818 296.18 281.517C295.623 281.21 294.964 281.057 294.202 281.057H289.907V287.125ZM289.907 279.216H293.827C294.464 279.216 295.038 279.091 295.549 278.841C296.066 278.591 296.475 278.239 296.776 277.784C297.083 277.33 297.237 276.795 297.237 276.182C297.237 275.415 296.969 274.764 296.435 274.23C295.901 273.69 295.055 273.42 293.896 273.42H289.907V279.216ZM303.403 289V271.545H305.516V287.125H313.63V289H303.403ZM316.903 289V271.545H327.437V273.42H319.016V279.318H326.891V281.193H319.016V287.125H327.573V289H316.903ZM224.83 300.545L230.011 315.239H230.216L235.398 300.545H237.614L231.205 318H229.023L222.614 300.545H224.83ZM242.446 300.545V318H240.332V300.545H242.446ZM256.229 304.909C256.127 304.045 255.712 303.375 254.985 302.898C254.258 302.42 253.366 302.182 252.309 302.182C251.536 302.182 250.86 302.307 250.281 302.557C249.707 302.807 249.258 303.151 248.934 303.588C248.616 304.026 248.457 304.523 248.457 305.08C248.457 305.545 248.567 305.946 248.789 306.281C249.016 306.611 249.306 306.886 249.658 307.108C250.011 307.324 250.38 307.503 250.766 307.645C251.153 307.781 251.508 307.892 251.832 307.977L253.604 308.455C254.059 308.574 254.565 308.739 255.121 308.949C255.684 309.159 256.221 309.446 256.732 309.81C257.249 310.168 257.675 310.628 258.011 311.19C258.346 311.753 258.513 312.443 258.513 313.261C258.513 314.205 258.266 315.057 257.772 315.818C257.283 316.58 256.567 317.185 255.624 317.634C254.687 318.082 253.548 318.307 252.207 318.307C250.957 318.307 249.874 318.105 248.96 317.702C248.05 317.298 247.335 316.736 246.812 316.014C246.295 315.293 246.002 314.455 245.934 313.5H248.116C248.173 314.159 248.394 314.705 248.781 315.136C249.173 315.562 249.667 315.881 250.263 316.091C250.866 316.295 251.513 316.398 252.207 316.398C253.013 316.398 253.738 316.267 254.38 316.006C255.022 315.739 255.531 315.369 255.906 314.898C256.281 314.42 256.468 313.864 256.468 313.227C256.468 312.648 256.306 312.176 255.982 311.812C255.658 311.449 255.232 311.153 254.704 310.926C254.175 310.699 253.604 310.5 252.991 310.33L250.843 309.716C249.479 309.324 248.4 308.764 247.604 308.037C246.809 307.31 246.411 306.358 246.411 305.182C246.411 304.205 246.675 303.352 247.204 302.625C247.738 301.892 248.454 301.324 249.352 300.92C250.255 300.511 251.263 300.307 252.377 300.307C253.502 300.307 254.502 300.509 255.377 300.912C256.252 301.31 256.945 301.855 257.457 302.548C257.974 303.241 258.246 304.028 258.275 304.909H256.229ZM273.443 300.545H275.557V312.102C275.557 313.295 275.276 314.361 274.713 315.298C274.156 316.23 273.369 316.966 272.352 317.506C271.335 318.04 270.142 318.307 268.773 318.307C267.403 318.307 266.21 318.04 265.193 317.506C264.176 316.966 263.386 316.23 262.824 315.298C262.267 314.361 261.989 313.295 261.989 312.102V300.545H264.102V311.932C264.102 312.784 264.29 313.543 264.665 314.207C265.04 314.866 265.574 315.386 266.267 315.767C266.966 316.142 267.801 316.33 268.773 316.33C269.744 316.33 270.58 316.142 271.278 315.767C271.977 315.386 272.511 314.866 272.881 314.207C273.256 313.543 273.443 312.784 273.443 311.932V300.545ZM280.494 318H278.278L284.687 300.545H286.869L293.278 318H291.062L285.846 303.307H285.71L280.494 318ZM281.312 311.182H290.244V313.057H281.312V311.182ZM295.996 318V300.545H298.11V316.125H306.224V318H295.996ZM233.659 333.909C233.557 333.045 233.142 332.375 232.415 331.898C231.688 331.42 230.795 331.182 229.739 331.182C228.966 331.182 228.29 331.307 227.71 331.557C227.136 331.807 226.688 332.151 226.364 332.588C226.045 333.026 225.886 333.523 225.886 334.08C225.886 334.545 225.997 334.946 226.219 335.281C226.446 335.611 226.736 335.886 227.088 336.108C227.44 336.324 227.81 336.503 228.196 336.645C228.582 336.781 228.938 336.892 229.261 336.977L231.034 337.455C231.489 337.574 231.994 337.739 232.551 337.949C233.114 338.159 233.651 338.446 234.162 338.81C234.679 339.168 235.105 339.628 235.44 340.19C235.776 340.753 235.943 341.443 235.943 342.261C235.943 343.205 235.696 344.057 235.202 344.818C234.713 345.58 233.997 346.185 233.054 346.634C232.116 347.082 230.977 347.307 229.636 347.307C228.386 347.307 227.304 347.105 226.389 346.702C225.48 346.298 224.764 345.736 224.241 345.014C223.724 344.293 223.432 343.455 223.364 342.5H225.545C225.602 343.159 225.824 343.705 226.21 344.136C226.602 344.562 227.097 344.881 227.693 345.091C228.295 345.295 228.943 345.398 229.636 345.398C230.443 345.398 231.168 345.267 231.81 345.006C232.452 344.739 232.96 344.369 233.335 343.898C233.71 343.42 233.898 342.864 233.898 342.227C233.898 341.648 233.736 341.176 233.412 340.812C233.088 340.449 232.662 340.153 232.134 339.926C231.605 339.699 231.034 339.5 230.42 339.33L228.273 338.716C226.909 338.324 225.83 337.764 225.034 337.037C224.239 336.31 223.841 335.358 223.841 334.182C223.841 333.205 224.105 332.352 224.634 331.625C225.168 330.892 225.884 330.324 226.781 329.92C227.685 329.511 228.693 329.307 229.807 329.307C230.932 329.307 231.932 329.509 232.807 329.912C233.682 330.31 234.375 330.855 234.886 331.548C235.403 332.241 235.676 333.028 235.705 333.909H233.659ZM237.918 329.545H240.339L245.18 337.693H245.384L250.225 329.545H252.646L246.339 339.807V347H244.225V339.807L237.918 329.545ZM264.925 333.909C264.822 333.045 264.408 332.375 263.68 331.898C262.953 331.42 262.061 331.182 261.004 331.182C260.232 331.182 259.555 331.307 258.976 331.557C258.402 331.807 257.953 332.151 257.629 332.588C257.311 333.026 257.152 333.523 257.152 334.08C257.152 334.545 257.263 334.946 257.484 335.281C257.712 335.611 258.001 335.886 258.354 336.108C258.706 336.324 259.075 336.503 259.462 336.645C259.848 336.781 260.203 336.892 260.527 336.977L262.3 337.455C262.754 337.574 263.26 337.739 263.817 337.949C264.379 338.159 264.916 338.446 265.428 338.81C265.945 339.168 266.371 339.628 266.706 340.19C267.041 340.753 267.209 341.443 267.209 342.261C267.209 343.205 266.962 344.057 266.467 344.818C265.979 345.58 265.263 346.185 264.32 346.634C263.382 347.082 262.243 347.307 260.902 347.307C259.652 347.307 258.57 347.105 257.655 346.702C256.746 346.298 256.03 345.736 255.507 345.014C254.99 344.293 254.697 343.455 254.629 342.5H256.811C256.868 343.159 257.089 343.705 257.476 344.136C257.868 344.562 258.362 344.881 258.959 345.091C259.561 345.295 260.209 345.398 260.902 345.398C261.709 345.398 262.433 345.267 263.075 345.006C263.717 344.739 264.226 344.369 264.601 343.898C264.976 343.42 265.163 342.864 265.163 342.227C265.163 341.648 265.001 341.176 264.678 340.812C264.354 340.449 263.928 340.153 263.399 339.926C262.871 339.699 262.3 339.5 261.686 339.33L259.538 338.716C258.175 338.324 257.095 337.764 256.3 337.037C255.504 336.31 255.107 335.358 255.107 334.182C255.107 333.205 255.371 332.352 255.899 331.625C256.433 330.892 257.149 330.324 258.047 329.92C258.95 329.511 259.959 329.307 261.072 329.307C262.197 329.307 263.197 329.509 264.072 329.912C264.947 330.31 265.641 330.855 266.152 331.548C266.669 332.241 266.942 333.028 266.97 333.909H264.925ZM269.729 331.42V329.545H282.82V331.42H277.332V347H275.218V331.42H269.729ZM286.082 347V329.545H296.616V331.42H288.196V337.318H296.071V339.193H288.196V345.125H296.753V347H286.082ZM300.426 329.545H302.949L308.881 344.034H309.085L315.017 329.545H317.54V347H315.562V333.739H315.392L309.938 347H308.028L302.574 333.739H302.403V347H300.426V329.545ZM331.323 333.909C331.221 333.045 330.806 332.375 330.079 331.898C329.352 331.42 328.46 331.182 327.403 331.182C326.63 331.182 325.954 331.307 325.374 331.557C324.8 331.807 324.352 332.151 324.028 332.588C323.71 333.026 323.55 333.523 323.55 334.08C323.55 334.545 323.661 334.946 323.883 335.281C324.11 335.611 324.4 335.886 324.752 336.108C325.104 336.324 325.474 336.503 325.86 336.645C326.246 336.781 326.602 336.892 326.925 336.977L328.698 337.455C329.153 337.574 329.658 337.739 330.215 337.949C330.778 338.159 331.315 338.446 331.826 338.81C332.343 339.168 332.769 339.628 333.104 340.19C333.44 340.753 333.607 341.443 333.607 342.261C333.607 343.205 333.36 344.057 332.866 344.818C332.377 345.58 331.661 346.185 330.718 346.634C329.781 347.082 328.641 347.307 327.3 347.307C326.05 347.307 324.968 347.105 324.053 346.702C323.144 346.298 322.428 345.736 321.906 345.014C321.388 344.293 321.096 343.455 321.028 342.5H323.21C323.266 343.159 323.488 343.705 323.874 344.136C324.266 344.562 324.761 344.881 325.357 345.091C325.96 345.295 326.607 345.398 327.3 345.398C328.107 345.398 328.832 345.267 329.474 345.006C330.116 344.739 330.624 344.369 330.999 343.898C331.374 343.42 331.562 342.864 331.562 342.227C331.562 341.648 331.4 341.176 331.076 340.812C330.752 340.449 330.326 340.153 329.798 339.926C329.269 339.699 328.698 339.5 328.085 339.33L325.937 338.716C324.573 338.324 323.494 337.764 322.698 337.037C321.903 336.31 321.505 335.358 321.505 334.182C321.505 333.205 321.769 332.352 322.298 331.625C322.832 330.892 323.548 330.324 324.445 329.92C325.349 329.511 326.357 329.307 327.471 329.307C328.596 329.307 329.596 329.509 330.471 329.912C331.346 330.31 332.039 330.855 332.55 331.548C333.067 332.241 333.34 333.028 333.369 333.909H331.323ZM338.276 347.136C337.855 347.136 337.494 346.986 337.193 346.685C336.892 346.384 336.741 346.023 336.741 345.602C336.741 345.182 336.892 344.821 337.193 344.52C337.494 344.219 337.855 344.068 338.276 344.068C338.696 344.068 339.057 344.219 339.358 344.52C339.659 344.821 339.81 345.182 339.81 345.602C339.81 345.881 339.739 346.136 339.597 346.369C339.46 346.602 339.276 346.79 339.043 346.932C338.815 347.068 338.56 347.136 338.276 347.136ZM226.227 358.545V376H224.114V358.545H226.227ZM244.306 358.545V376H242.261L232.749 362.295H232.579V376H230.465V358.545H232.511L242.056 372.284H242.227V358.545H244.306ZM248.536 376V358.545H259.001V360.42H250.649V366.318H258.217V368.193H250.649V376H248.536ZM277.349 367.273C277.349 369.114 277.016 370.705 276.352 372.045C275.687 373.386 274.775 374.42 273.616 375.148C272.457 375.875 271.133 376.239 269.644 376.239C268.156 376.239 266.832 375.875 265.673 375.148C264.513 374.42 263.602 373.386 262.937 372.045C262.272 370.705 261.94 369.114 261.94 367.273C261.94 365.432 262.272 363.841 262.937 362.5C263.602 361.159 264.513 360.125 265.673 359.398C266.832 358.67 268.156 358.307 269.644 358.307C271.133 358.307 272.457 358.67 273.616 359.398C274.775 360.125 275.687 361.159 276.352 362.5C277.016 363.841 277.349 365.432 277.349 367.273ZM275.303 367.273C275.303 365.761 275.05 364.486 274.545 363.446C274.045 362.406 273.366 361.619 272.508 361.085C271.656 360.551 270.701 360.284 269.644 360.284C268.587 360.284 267.63 360.551 266.772 361.085C265.92 361.619 265.241 362.406 264.735 363.446C264.235 364.486 263.985 365.761 263.985 367.273C263.985 368.784 264.235 370.06 264.735 371.099C265.241 372.139 265.92 372.926 266.772 373.46C267.63 373.994 268.587 374.261 269.644 374.261C270.701 374.261 271.656 373.994 272.508 373.46C273.366 372.926 274.045 372.139 274.545 371.099C275.05 370.06 275.303 368.784 275.303 367.273Z" fill="white"/>
<rect width="400" height="215" transform="matrix(1 0 0 -1 0 215)" fill="#0029FF"/>
<path d="M14.1879 48V30.5455H24.6538V32.4205H16.3015V38.3182H23.8697V40.1932H16.3015V48H14.1879ZM28.2738 48V30.5455H30.3874V46.125H38.5011V48H28.2738ZM41.7738 48V30.5455H52.3079V32.4205H43.8874V38.3182H51.7624V40.1932H43.8874V46.125H52.4442V48H41.7738ZM57.1403 30.5455L61.6403 37.8068H61.7766L66.2766 30.5455H68.7653L63.2766 39.2727L68.7653 48H66.2766L61.7766 40.875H61.6403L57.1403 48H54.6516L60.2766 39.2727L54.6516 30.5455H57.1403ZM73.6296 30.5455V48H71.516V30.5455H73.6296ZM77.8675 48V30.5455H83.9698C85.1857 30.5455 86.1886 30.7557 86.9783 31.1761C87.7681 31.5909 88.3562 32.1506 88.7425 32.8551C89.1289 33.554 89.3221 34.3295 89.3221 35.1818C89.3221 35.9318 89.1886 36.5511 88.9215 37.0398C88.6602 37.5284 88.3136 37.9148 87.8817 38.1989C87.4556 38.483 86.9925 38.6932 86.4925 38.8295V39C87.0266 39.0341 87.5636 39.2216 88.1033 39.5625C88.6431 39.9034 89.0948 40.392 89.4585 41.0284C89.8221 41.6648 90.0039 42.4432 90.0039 43.3636C90.0039 44.2386 89.805 45.0256 89.4073 45.7244C89.0096 46.4233 88.3817 46.9773 87.5238 47.3864C86.6658 47.7955 85.5494 48 84.1744 48H77.8675ZM79.9812 46.125H84.1744C85.555 46.125 86.5352 45.858 87.1147 45.3239C87.6999 44.7841 87.9925 44.1307 87.9925 43.3636C87.9925 42.7727 87.842 42.2273 87.5408 41.7273C87.2397 41.2216 86.8107 40.8182 86.2539 40.517C85.6971 40.2102 85.038 40.0568 84.2766 40.0568H79.9812V46.125ZM79.9812 38.2159H83.9016C84.538 38.2159 85.1119 38.0909 85.6232 37.8409C86.1403 37.5909 86.5494 37.2386 86.8505 36.7841C87.1573 36.3295 87.3107 35.7955 87.3107 35.1818C87.3107 34.4148 87.0437 33.7642 86.5096 33.2301C85.9755 32.6903 85.1289 32.4205 83.9698 32.4205H79.9812V38.2159ZM93.4769 48V30.5455H95.5906V46.125H103.704V48H93.4769ZM106.977 48V30.5455H117.511V32.4205H109.091V38.3182H116.966V40.1932H109.091V46.125H117.647V48H106.977ZM137.616 34.9091C137.514 34.0455 137.099 33.375 136.372 32.8977C135.645 32.4205 134.752 32.1818 133.696 32.1818C132.923 32.1818 132.247 32.3068 131.667 32.5568C131.093 32.8068 130.645 33.1506 130.321 33.5881C130.002 34.0256 129.843 34.5227 129.843 35.0795C129.843 35.5455 129.954 35.946 130.176 36.2812C130.403 36.6108 130.693 36.8864 131.045 37.108C131.397 37.3239 131.767 37.5028 132.153 37.6449C132.539 37.7812 132.895 37.892 133.218 37.9773L134.991 38.4545C135.446 38.5739 135.951 38.7386 136.508 38.9489C137.071 39.1591 137.608 39.446 138.119 39.8097C138.636 40.1676 139.062 40.6278 139.397 41.1903C139.733 41.7528 139.9 42.4432 139.9 43.2614C139.9 44.2045 139.653 45.0568 139.159 45.8182C138.67 46.5795 137.954 47.1847 137.011 47.6335C136.074 48.0824 134.934 48.3068 133.593 48.3068C132.343 48.3068 131.261 48.1051 130.346 47.7017C129.437 47.2983 128.721 46.7358 128.199 46.0142C127.681 45.2926 127.389 44.4545 127.321 43.5H129.502C129.559 44.1591 129.781 44.7045 130.167 45.1364C130.559 45.5625 131.054 45.8807 131.65 46.0909C132.252 46.2955 132.9 46.3977 133.593 46.3977C134.4 46.3977 135.125 46.267 135.767 46.0057C136.409 45.7386 136.917 45.3693 137.292 44.8977C137.667 44.4205 137.855 43.8636 137.855 43.2273C137.855 42.6477 137.693 42.1761 137.369 41.8125C137.045 41.4489 136.619 41.1534 136.091 40.9261C135.562 40.6989 134.991 40.5 134.377 40.3295L132.23 39.7159C130.866 39.3239 129.787 38.7642 128.991 38.0369C128.196 37.3097 127.798 36.358 127.798 35.1818C127.798 34.2045 128.062 33.3523 128.591 32.625C129.125 31.892 129.841 31.3239 130.738 30.9205C131.642 30.5114 132.65 30.3068 133.764 30.3068C134.889 30.3068 135.889 30.5085 136.764 30.9119C137.639 31.3097 138.332 31.8551 138.843 32.5483C139.36 33.2415 139.633 34.0284 139.662 34.9091H137.616ZM141.875 30.5455H144.296L149.137 38.6932H149.341L154.182 30.5455H156.603L150.296 40.8068V48H148.182V40.8068L141.875 30.5455ZM168.882 34.9091C168.779 34.0455 168.365 33.375 167.637 32.8977C166.91 32.4205 166.018 32.1818 164.961 32.1818C164.189 32.1818 163.512 32.3068 162.933 32.5568C162.359 32.8068 161.91 33.1506 161.586 33.5881C161.268 34.0256 161.109 34.5227 161.109 35.0795C161.109 35.5455 161.22 35.946 161.441 36.2812C161.669 36.6108 161.958 36.8864 162.311 37.108C162.663 37.3239 163.032 37.5028 163.419 37.6449C163.805 37.7812 164.16 37.892 164.484 37.9773L166.257 38.4545C166.711 38.5739 167.217 38.7386 167.774 38.9489C168.336 39.1591 168.873 39.446 169.385 39.8097C169.902 40.1676 170.328 40.6278 170.663 41.1903C170.998 41.7528 171.166 42.4432 171.166 43.2614C171.166 44.2045 170.919 45.0568 170.424 45.8182C169.936 46.5795 169.22 47.1847 168.277 47.6335C167.339 48.0824 166.2 48.3068 164.859 48.3068C163.609 48.3068 162.527 48.1051 161.612 47.7017C160.703 47.2983 159.987 46.7358 159.464 46.0142C158.947 45.2926 158.654 44.4545 158.586 43.5H160.768C160.825 44.1591 161.047 44.7045 161.433 45.1364C161.825 45.5625 162.319 45.8807 162.916 46.0909C163.518 46.2955 164.166 46.3977 164.859 46.3977C165.666 46.3977 166.39 46.267 167.032 46.0057C167.674 45.7386 168.183 45.3693 168.558 44.8977C168.933 44.4205 169.12 43.8636 169.12 43.2273C169.12 42.6477 168.958 42.1761 168.635 41.8125C168.311 41.4489 167.885 41.1534 167.356 40.9261C166.828 40.6989 166.257 40.5 165.643 40.3295L163.495 39.7159C162.132 39.3239 161.052 38.7642 160.257 38.0369C159.461 37.3097 159.064 36.358 159.064 35.1818C159.064 34.2045 159.328 33.3523 159.856 32.625C160.39 31.892 161.106 31.3239 162.004 30.9205C162.907 30.5114 163.916 30.3068 165.029 30.3068C166.154 30.3068 167.154 30.5085 168.029 30.9119C168.904 31.3097 169.598 31.8551 170.109 32.5483C170.626 33.2415 170.899 34.0284 170.927 34.9091H168.882ZM173.686 32.4205V30.5455H186.777V32.4205H181.289V48H179.175V32.4205H173.686ZM190.039 48V30.5455H200.574V32.4205H192.153V38.3182H200.028V40.1932H192.153V46.125H200.71V48H190.039ZM204.383 30.5455H206.906L212.838 45.0341H213.042L218.974 30.5455H221.497V48H219.52V34.7386H219.349L213.895 48H211.985L206.531 34.7386H206.36V48H204.383V30.5455ZM235.28 34.9091C235.178 34.0455 234.763 33.375 234.036 32.8977C233.309 32.4205 232.417 32.1818 231.36 32.1818C230.587 32.1818 229.911 32.3068 229.331 32.5568C228.757 32.8068 228.309 33.1506 227.985 33.5881C227.667 34.0256 227.507 34.5227 227.507 35.0795C227.507 35.5455 227.618 35.946 227.84 36.2812C228.067 36.6108 228.357 36.8864 228.709 37.108C229.061 37.3239 229.431 37.5028 229.817 37.6449C230.203 37.7812 230.559 37.892 230.882 37.9773L232.655 38.4545C233.11 38.5739 233.615 38.7386 234.172 38.9489C234.735 39.1591 235.272 39.446 235.783 39.8097C236.3 40.1676 236.726 40.6278 237.061 41.1903C237.397 41.7528 237.564 42.4432 237.564 43.2614C237.564 44.2045 237.317 45.0568 236.823 45.8182C236.334 46.5795 235.618 47.1847 234.675 47.6335C233.738 48.0824 232.598 48.3068 231.257 48.3068C230.007 48.3068 228.925 48.1051 228.01 47.7017C227.101 47.2983 226.385 46.7358 225.863 46.0142C225.346 45.2926 225.053 44.4545 224.985 43.5H227.167C227.223 44.1591 227.445 44.7045 227.831 45.1364C228.223 45.5625 228.718 45.8807 229.314 46.0909C229.917 46.2955 230.564 46.3977 231.257 46.3977C232.064 46.3977 232.789 46.267 233.431 46.0057C234.073 45.7386 234.581 45.3693 234.956 44.8977C235.331 44.4205 235.519 43.8636 235.519 43.2273C235.519 42.6477 235.357 42.1761 235.033 41.8125C234.709 41.4489 234.283 41.1534 233.755 40.9261C233.226 40.6989 232.655 40.5 232.042 40.3295L229.894 39.7159C228.53 39.3239 227.451 38.7642 226.655 38.0369C225.86 37.3097 225.462 36.358 225.462 35.1818C225.462 34.2045 225.726 33.3523 226.255 32.625C226.789 31.892 227.505 31.3239 228.402 30.9205C229.306 30.5114 230.314 30.3068 231.428 30.3068C232.553 30.3068 233.553 30.5085 234.428 30.9119C235.303 31.3097 235.996 31.8551 236.507 32.5483C237.025 33.2415 237.297 34.0284 237.326 34.9091H235.28Z" fill="white"/>
</svg>
